<svg width="33" height="33" viewBox="0 0 33 33" fill="none" xmlns="http://www.w3.org/2000/svg">
<path d="M16.375 0.375C7.53842 0.375 0.375 7.53842 0.375 16.375C0.375 25.2116 7.53842 32.375 16.375 32.375C25.2116 32.375 32.375 25.2116 32.375 16.375C32.375 7.53842 25.2116 0.375 16.375 0.375ZM16.375 3.47177C23.5061 3.47177 29.2782 9.24281 29.2782 16.375C29.2782 23.5061 23.5072 29.2782 16.375 29.2782C9.2439 29.2782 3.47177 23.5072 3.47177 16.375C3.47177 9.2439 9.24281 3.47177 16.375 3.47177ZM25.4204 11.8761L23.9665 10.4104C23.6654 10.1069 23.1752 10.1049 22.8716 10.406L13.7522 19.4522L9.89461 15.5634C9.59352 15.2598 9.10332 15.2578 8.79977 15.5589L7.33403 17.0129C7.03048 17.314 7.02848 17.8042 7.32964 18.1078L13.1865 24.012C13.4876 24.3156 13.9778 24.3176 14.2813 24.0164L25.4161 12.971C25.7196 12.6698 25.7215 12.1796 25.4204 11.8761V11.8761Z" fill="#24BF5E"/>
</svg>
